; NON-PLATED HOLES START AT T1
; THROUGH (PLATED) HOLES START AT T100
M48
INCH
T100C0.015748
T101C0.035000
T102C0.022422
T103C0.038000
%
T100
X007320Y014775
X012600Y017415
X017160Y017415
X016440Y016935
T101
X003611Y003876
X006611Y006876
X003611Y008876
X006611Y005876
X003611Y005876
X006611Y002876
X006611Y009876
X003611Y004876
X006611Y003876
X006611Y007876
X006611Y008876
X003611Y006876
X003611Y002876
X003611Y007876
X006611Y004876
X003611Y009876
T102
X012611Y007849
X012611Y005876
X024181Y003833
X024181Y009892
T103
X022614Y021876
X011611Y022876
X014611Y018876
X025479Y017946
X014611Y015876
X023611Y021876
X018611Y022876
X016611Y021876
X014611Y005876
X004610Y021876
X016611Y005876
X005611Y022876
X009611Y022876
X005611Y021876
X008611Y022876
X025479Y016946
X017611Y022876
X021610Y022876
X007611Y022876
X021610Y021876
X007611Y021876
X013610Y022876
X004611Y022876
X020607Y021876
X012611Y022876
X011611Y021876
X015611Y021876
X014611Y022876
X008611Y021876
X018611Y021876
X023611Y022876
X010611Y022876
X006611Y021876
X015611Y022876
X012611Y021862
X010570Y021876
X009611Y021876
X019611Y021876
X014611Y017876
X014611Y021876
X014611Y016876
X017611Y021876
X022614Y022876
X016611Y022876
X019611Y022876
X006611Y022876
X020607Y022876
X013611Y021876
T00
M30
