G04 MADE WITH FRITZING*
G04 WWW.FRITZING.ORG*
G04 DOUBLE SIDED*
G04 HOLES PLATED*
G04 CONTOUR ON CENTER OF CONTOUR VECTOR*
%ASAXBY*%
%FSLAX23Y23*%
%MOIN*%
%OFA0B0*%
%SFA1.0B1.0*%
%ADD10C,0.078000*%
%ADD11C,0.075000*%
%ADD12C,0.047978*%
%ADD13C,0.039370*%
%ADD14R,0.075000X0.075000*%
%ADD15C,0.024000*%
%LNCOPPER0*%
G90*
G70*
G54D10*
X461Y2188D03*
X561Y2188D03*
X661Y2188D03*
X761Y2188D03*
X861Y2188D03*
X961Y2188D03*
X1057Y2188D03*
X1161Y2188D03*
X1261Y2186D03*
X1361Y2188D03*
X1461Y2188D03*
X1561Y2188D03*
X1661Y2188D03*
X1761Y2188D03*
X1861Y2188D03*
X1961Y2188D03*
X2061Y2188D03*
X2161Y2188D03*
X2261Y2188D03*
X2361Y2188D03*
X2361Y2288D03*
X2261Y2288D03*
X2161Y2288D03*
X2061Y2288D03*
X1961Y2288D03*
X1861Y2288D03*
X1761Y2288D03*
X1661Y2288D03*
X1561Y2288D03*
X1461Y2288D03*
X1361Y2288D03*
X1261Y2288D03*
X1161Y2288D03*
X1061Y2288D03*
X961Y2288D03*
X861Y2288D03*
X761Y2288D03*
X661Y2288D03*
X561Y2288D03*
X461Y2288D03*
G54D11*
X361Y988D03*
X661Y988D03*
X361Y888D03*
X661Y888D03*
X361Y788D03*
X661Y788D03*
X361Y688D03*
X661Y688D03*
X361Y588D03*
X661Y588D03*
X361Y488D03*
X661Y488D03*
X361Y388D03*
X661Y388D03*
X361Y288D03*
X661Y288D03*
G54D12*
X1261Y588D03*
X1261Y785D03*
X2418Y989D03*
X2418Y383D03*
G54D10*
X1461Y588D03*
X1661Y588D03*
X1461Y1588D03*
X1461Y1688D03*
X1461Y1788D03*
X1461Y1888D03*
X2548Y1695D03*
X2548Y1795D03*
G54D13*
X732Y1478D03*
X1644Y1694D03*
X1260Y1742D03*
X1716Y1742D03*
G54D14*
X361Y988D03*
G54D15*
X1579Y2312D02*
X1620Y2366D01*
D02*
X1620Y2366D02*
X2436Y2366D01*
D02*
X2436Y2366D02*
X2436Y2150D01*
D02*
X2436Y2150D02*
X1524Y1526D01*
D02*
X1063Y989D02*
X960Y387D01*
D02*
X1524Y1526D02*
X1063Y989D01*
D02*
X960Y387D02*
X690Y388D01*
D02*
X1660Y787D02*
X1661Y618D01*
D02*
X1283Y785D02*
X1660Y787D01*
D02*
X1343Y2164D02*
X1332Y2150D01*
D02*
X1332Y2150D02*
X1332Y1502D01*
D02*
X1332Y1502D02*
X1164Y1454D01*
D02*
X1164Y1454D02*
X828Y1046D01*
D02*
X828Y1046D02*
X861Y487D01*
D02*
X861Y487D02*
X690Y488D01*
D02*
X685Y604D02*
X732Y638D01*
D02*
X732Y638D02*
X732Y1459D01*
D02*
X1637Y1711D02*
X1472Y2159D01*
D02*
X635Y777D02*
X588Y758D01*
D02*
X588Y758D02*
X588Y350D01*
D02*
X588Y350D02*
X639Y306D01*
D02*
X881Y2165D02*
X1247Y1756D01*
D02*
X1732Y1752D02*
X2340Y2150D01*
D02*
X2340Y2150D02*
X2347Y2161D01*
D02*
X2412Y362D02*
X2360Y186D01*
D02*
X2360Y186D02*
X461Y188D01*
D02*
X462Y1388D02*
X417Y1535D01*
D02*
X417Y1535D02*
X396Y2246D01*
D02*
X461Y188D02*
X462Y1388D01*
D02*
X396Y2246D02*
X436Y2271D01*
G04 End of Copper0*
M02*